<svg width="60" height="80" viewBox="0 0 60 80" fill="none" xmlns="http://www.w3.org/2000/svg">
<g clip-path="url(#clip0_63_1751)">
<path d="M0 8C0 3.58172 3.58172 0 8 0H34L60 26V72C60 76.4183 56.4183 80 52 80H8C3.58172 80 0 76.4183 0 72V8Z" fill="#344054" style="fill:#344054;fill:color(display-p3 0.2039 0.2510 0.3294);fill-opacity:1;"/>
<path d="M40 26H60L34 0V20C34 23.3137 36.6863 26 40 26Z" fill="white" fill-opacity="0.5" style="fill:white;fill-opacity:0.5;"/>
</g>
<path d="M27.2188 65.1847C26.7501 65.1847 26.3476 65.0189 26.0114 64.6875C25.68 64.3513 25.5143 63.9489 25.5143 63.4801C25.5143 63.0161 25.68 62.6184 26.0114 62.2869C26.3476 61.9555 26.7501 61.7898 27.2188 61.7898C27.6734 61.7898 28.0711 61.9555 28.412 62.2869C28.7529 62.6184 28.9234 63.0161 28.9234 63.4801C28.9234 63.7926 28.8429 64.0791 28.6819 64.3395C28.5256 64.5952 28.3197 64.8011 28.064 64.9574C27.8083 65.1089 27.5266 65.1847 27.2188 65.1847ZM32.7759 65.1847C32.3071 65.1847 31.9046 65.0189 31.5685 64.6875C31.237 64.3513 31.0713 63.9489 31.0713 63.4801C31.0713 63.0161 31.237 62.6184 31.5685 62.2869C31.9046 61.9555 32.3071 61.7898 32.7759 61.7898C33.2304 61.7898 33.6281 61.9555 33.969 62.2869C34.3099 62.6184 34.4804 63.0161 34.4804 63.4801C34.4804 63.7926 34.3999 64.0791 34.2389 64.3395C34.0827 64.5952 33.8767 64.8011 33.621 64.9574C33.3653 65.1089 33.0836 65.1847 32.7759 65.1847Z" fill="white" style="fill:white;fill-opacity:1;"/>
<defs>
<clipPath id="clip0_63_1751">
<rect width="60" height="80" fill="white" style="fill:white;fill-opacity:1;"/>
</clipPath>
</defs>
</svg>
