<svg width="24" height="24" viewBox="0 0 24 24" fill="none" xmlns="http://www.w3.org/2000/svg">
<g clip-path="url(#clip0_25_1303)">
<path d="M20 22.5H4V1.5H15L20 6.5V22.5Z" fill="#90CAF9"/>
<path d="M19.25 7H14.5V2.25L19.25 7Z" fill="#E1F5FE"/>
<path d="M11.5 13C10.9696 13 10.4609 13.2107 10.0858 13.5858C9.71071 13.9609 9.5 14.4696 9.5 15C9.5 15.5304 9.71071 16.0391 10.0858 16.4142C10.4609 16.7893 10.9696 17 11.5 17C12.0304 17 12.5391 16.7893 12.9142 16.4142C13.2893 16.0391 13.5 15.5304 13.5 15C13.5 14.4696 13.2893 13.9609 12.9142 13.5858C12.5391 13.2107 12.0304 13 11.5 13Z" fill="#1976D2"/>
<path d="M15 10.5L12.5 9.5V15H13.5V11.45L15 12V10.5Z" fill="#1976D2"/>
</g>
<defs>
<clipPath id="clip0_25_1303">
<rect width="24" height="24" fill="white"/>
</clipPath>
</defs>
</svg>
