<svg width="24" height="24" viewBox="0 0 24 24" fill="none" xmlns="http://www.w3.org/2000/svg">
<path d="M6.73536 6.49316C6.54058 6.49884 6.35566 6.58009 6.21973 6.71972L1.21973 11.7197C1.07914 11.8604 1.00015 12.0511 1.00015 12.25C1.00015 12.4489 1.07914 12.6396 1.21973 12.7803L6.21973 17.7803C6.28884 17.8523 6.37162 17.9097 6.46322 17.9493C6.55481 17.9889 6.65339 18.0098 6.75317 18.0108C6.85295 18.0118 6.95192 17.9929 7.04431 17.9552C7.13669 17.9175 7.22062 17.8617 7.29117 17.7912C7.36173 17.7206 7.4175 17.6367 7.45522 17.5443C7.49294 17.4519 7.51184 17.3529 7.51083 17.2532C7.50981 17.1534 7.4889 17.0548 7.44931 16.9632C7.40972 16.8716 7.35226 16.7888 7.28028 16.7197L3.56055 13H22.25C22.3494 13.0014 22.4481 12.983 22.5403 12.946C22.6325 12.9089 22.7165 12.8539 22.7872 12.7841C22.858 12.7143 22.9142 12.6312 22.9526 12.5395C22.9909 12.4478 23.0107 12.3494 23.0107 12.25C23.0107 12.1506 22.9909 12.0522 22.9526 11.9605C22.9142 11.8688 22.858 11.7857 22.7872 11.7159C22.7165 11.6461 22.6325 11.5911 22.5403 11.554C22.4481 11.517 22.3494 11.4986 22.25 11.5H3.56055L7.28028 7.78027C7.38848 7.67489 7.46235 7.53931 7.49222 7.39125C7.52208 7.2432 7.50656 7.08958 7.44768 6.9505C7.38879 6.81141 7.28929 6.69334 7.1622 6.61174C7.0351 6.53014 6.88633 6.48881 6.73536 6.49316Z" fill="#6B7280"/>
</svg>
