<svg width="24" height="24" viewBox="0 0 24 24" fill="none" xmlns="http://www.w3.org/2000/svg">
<path d="M20 22.5H4V1.5H15L20 6.5V22.5Z" fill="#FF80AB"/>
<path d="M19.25 7H14.5V2.25L19.25 7Z" fill="#FCE4EC"/>
<path d="M8.60851 15.527H7.23801L6.97151 16.5455H5.90851L7.46351 11.569H8.38301L9.94851 16.5455H8.87501L8.60851 15.527ZM7.45651 14.6895H8.38601L7.92101 12.9155L7.45651 14.6895ZM16.076 14.6245L15.6795 15.1235V16.5455H14.6745V11.569H15.6795V13.7395L15.9975 13.203L16.924 11.569H18.1545L16.729 13.7565L18.178 16.5455H16.985L16.076 14.6245ZM11.698 14.7955V16.5455H10.693V11.569H12.3885C13.576 11.569 14.005 12.5085 14.005 13.2165C14.005 14.472 13.042 14.7955 12.3885 14.7955H11.698ZM11.698 13.958H12.3885C12.982 13.958 12.99 13.33 12.99 13.223C12.99 13.116 12.9615 12.406 12.3885 12.406H11.698V13.958Z" fill="#E91E63"/>
</svg>
