<svg width="24" height="24" viewBox="0 0 24 24" fill="none" xmlns="http://www.w3.org/2000/svg">
<path d="M11.9883 1.48926C11.7896 1.49236 11.6002 1.57423 11.4618 1.71686C11.3233 1.8595 11.2472 2.05125 11.25 2.25V6.64844C10.5185 6.94603 10 7.66266 10 8.5V9H8.25003C6.45803 9 5.00003 10.458 5.00003 12.25V12.75C5.00003 16.625 4.03811 19.5127 4.03811 19.5127C3.98407 19.6747 3.98694 19.8503 4.04625 20.0105C4.10556 20.1707 4.21775 20.3058 4.36429 20.3936C4.36429 20.3936 7.07356 22 11.5 22C13.196 22 14.6866 21.7534 15.9873 21.4707C16.1567 21.493 16.3286 21.4568 16.4746 21.3682C18.3012 20.9325 19.5459 20.4395 19.5459 20.4395C19.7257 20.3622 19.8682 20.2178 19.943 20.037C20.0178 19.8562 20.019 19.6533 19.9463 19.4717C19.9463 19.4717 19 17.1389 19 12.75V12.25C19 10.458 17.542 9 15.75 9H14V8.5C14 7.66266 13.4816 6.94603 12.75 6.64844V2.25C12.7515 2.14962 12.7327 2.04997 12.695 1.95695C12.6572 1.86394 12.6011 1.77946 12.5301 1.70852C12.459 1.63757 12.3745 1.58161 12.2814 1.54395C12.1884 1.50629 12.0887 1.48769 11.9883 1.48926ZM6.47171 14H17.5244C17.634 16.8929 18.1039 18.5274 18.3418 19.2607C18.0048 19.3915 17.6366 19.544 16.5821 19.8164C16.3855 19.2255 16.083 18.1556 15.9991 16.2178C15.9978 16.1173 15.9765 16.0181 15.9362 15.9261C15.8959 15.8341 15.8376 15.7511 15.7646 15.682C15.6917 15.613 15.6056 15.5593 15.5115 15.5242C15.4174 15.489 15.3172 15.4731 15.2168 15.4775C15.1164 15.4818 15.018 15.5062 14.9272 15.5493C14.8365 15.5924 14.7553 15.6533 14.6886 15.7283C14.6218 15.8034 14.5708 15.8911 14.5386 15.9863C14.5064 16.0814 14.4936 16.182 14.501 16.2822C14.583 18.1762 14.8772 19.3542 15.1133 20.123C14.0234 20.3302 12.832 20.5 11.5 20.5C10.7467 20.5 10.1214 20.4165 9.49319 20.3389C9.67372 19.8644 9.865 19.2904 9.99319 18.3516C10.0068 18.2538 10.0011 18.1544 9.97621 18.0589C9.95134 17.9633 9.90788 17.8737 9.8483 17.795C9.78873 17.7163 9.71421 17.6502 9.62903 17.6004C9.54385 17.5505 9.44967 17.518 9.35189 17.5047C9.25411 17.4913 9.15466 17.4974 9.05923 17.5225C8.9638 17.5476 8.87427 17.5914 8.79577 17.6512C8.71727 17.711 8.65134 17.7857 8.60177 17.871C8.55219 17.9563 8.51994 18.0506 8.50686 18.1484C8.37453 19.1175 8.18079 19.7154 8.03714 20.0518C8.01851 20.0954 8.02971 20.0634 8.01468 20.0967C6.61558 19.7786 5.96896 19.4928 5.62991 19.3145C5.83668 18.6152 6.34649 16.7626 6.47171 14Z" fill="#6B7280"/>
</svg>
