<svg width="24" height="24" viewBox="0 0 24 24" fill="none" xmlns="http://www.w3.org/2000/svg">
<path d="M6.25 2C5.0095 2 4 3.0095 4 4.25V19.75C4 20.9905 5.0095 22 6.25 22H17.75C18.9905 22 20 20.9905 20 19.75V10H14.25C13.0095 10 12 8.9905 12 7.75V2H6.25ZM13.5 2.43945V7.75C13.5 8.1635 13.8365 8.5 14.25 8.5H19.5605L13.5 2.43945ZM9.7373 11.502C9.86668 11.4999 9.99708 11.5305 10.1113 11.5928L15.1113 14.3428C15.3513 14.4753 15.5 14.7265 15.5 15C15.5 15.2735 15.3508 15.5252 15.1113 15.6572L10.1113 18.4072C9.99933 18.4692 9.87352 18.499 9.74902 18.499C9.61652 18.499 9.48419 18.464 9.36719 18.3945C9.14069 18.261 9 18.014 9 17.75V12.25C9 11.986 9.14066 11.7385 9.36816 11.6035C9.47891 11.538 9.60793 11.504 9.7373 11.502Z" fill="#6B7280"/>
</svg>
