<svg width="24" height="24" viewBox="0 0 24 24" fill="none" xmlns="http://www.w3.org/2000/svg">
<path d="M4.75 6.5C4.61015 6.49993 4.47305 6.53897 4.35421 6.61269C4.23537 6.68642 4.1395 6.79191 4.07744 6.91725C4.01538 7.04258 3.9896 7.18277 4.00301 7.32199C4.01642 7.4612 4.06848 7.59389 4.15332 7.70508L11.4033 17.2051C11.4733 17.297 11.5636 17.3714 11.6671 17.4227C11.7706 17.474 11.8845 17.5006 12 17.5006C12.1155 17.5006 12.2294 17.474 12.3329 17.4227C12.4364 17.3714 12.5267 17.297 12.5967 17.2051L19.8467 7.70508C19.9315 7.59389 19.9836 7.4612 19.997 7.32199C20.0104 7.18277 19.9846 7.04258 19.9226 6.91725C19.8605 6.79191 19.7646 6.68643 19.6458 6.6127C19.527 6.53897 19.3899 6.49993 19.25 6.5H4.75ZM6.2666 8H17.7334L12 15.5127L6.2666 8Z" fill="#6B7280"/>
</svg>
