<svg width="24" height="24" viewBox="0 0 24 24" fill="none" xmlns="http://www.w3.org/2000/svg">
<path d="M6.25 2C5.0075 2 4 3.0075 4 4.25V19.75C4 20.9925 5.0075 22 6.25 22H17.75C18.9925 22 20 20.9925 20 19.75V10H14.25C13.0075 10 12 8.9925 12 7.75V2H6.25ZM13.5 2.43945V7.75C13.5 8.1635 13.8365 8.5 14.25 8.5H19.5605L13.5 2.43945ZM9.75 12.0303C10.4405 12.0303 11 12.5898 11 13.2803C11 13.9708 10.4405 14.5303 9.75 14.5303C9.0595 14.5303 8.5 13.9708 8.5 13.2803C8.5 12.5898 9.0595 12.0303 9.75 12.0303ZM14.25 12.0303C14.9405 12.0303 15.5 12.5898 15.5 13.2803C15.5 13.9708 14.9405 14.5303 14.25 14.5303C13.5595 14.5303 13 13.9708 13 13.2803C13 12.5898 13.5595 12.0303 14.25 12.0303ZM9.21875 16.1621C9.459 16.1461 9.70289 16.2462 9.86133 16.4512C10.3798 17.1177 11.159 17.5 12 17.5C12.841 17.5 13.6197 17.1172 14.1377 16.4502C14.3922 16.1227 14.8634 16.0644 15.1904 16.3184C15.5179 16.5729 15.5767 17.0431 15.3232 17.3701C14.5187 18.4061 13.3075 19 12 19C10.6925 19 9.48126 18.4056 8.67676 17.3701C8.42276 17.0431 8.48207 16.5719 8.80957 16.3184C8.9322 16.2229 9.0746 16.1717 9.21875 16.1621Z" fill="#6B7280"/>
</svg>
