<svg width="24" height="24" viewBox="0 0 24 24" fill="none" xmlns="http://www.w3.org/2000/svg">
<path d="M21 18.5C21 19.881 19.881 21 18.5 21H5.5C4.1195 21 3 19.881 3 18.5V5.5C3 4.119 4.1195 3 5.5 3H18.5C19.881 3 21 4.119 21 5.5V18.5Z" fill="#5C6BC0"/>
<path d="M17 6.5H7C6.724 6.5 6.5 6.724 6.5 7V13C6.5 13.276 6.724 13.5 7 13.5H17C17.276 13.5 17.5 13.276 17.5 13V7C17.5 6.724 17.276 6.5 17 6.5ZM16.5 8.5L12 10.5L7.5 8.5V7.5H16.5V8.5Z" fill="white"/>
<path d="M5.67991 16.4742H6.43204L6.87007 17.5943L7.31379 16.4742H8.04605L6.94355 19.1263H6.20656L6.50836 18.4237L5.67991 16.4742Z" fill="white"/>
<path d="M8.80828 16.4294C8.24315 16.4294 7.88616 16.9362 7.88616 17.4407C7.88616 18.0087 8.27784 18.4587 8.79755 18.4587C9.18544 18.4587 9.33146 18.2225 9.33146 18.2225V18.4067H9.98741V16.4742H9.33146V16.6498C9.33177 16.6498 9.16842 16.4294 8.80828 16.4294ZM8.94798 17.0506C9.20878 17.0506 9.34313 17.2569 9.34313 17.4429C9.34313 17.6435 9.19901 17.84 8.94798 17.84C8.73984 17.84 8.55189 17.67 8.55189 17.4515C8.55157 17.2298 8.70295 17.0506 8.94798 17.0506Z" fill="white"/>
<path d="M10.2135 18.4067V15.6208H10.8994V16.6564C10.8994 16.6564 11.0625 16.4297 11.4037 16.4297C11.8212 16.4297 12.0656 16.7406 12.0656 17.1853V18.4067H11.3848V17.3524C11.3848 17.202 11.3132 17.0566 11.1508 17.0566C10.9855 17.0566 10.8994 17.2042 10.8994 17.3524V18.4067H10.2135Z" fill="white"/>
<path d="M13.2353 16.4297C12.5882 16.4297 12.2028 16.9217 12.2028 17.4489C12.2028 18.0488 12.6692 18.459 13.2375 18.459C13.7884 18.459 14.2703 18.0677 14.2703 17.459C14.2706 16.7933 13.7661 16.4297 13.2353 16.4297ZM13.2416 17.0563C13.4702 17.0563 13.6282 17.2468 13.6282 17.4496C13.6282 17.6227 13.481 17.8362 13.2416 17.8362C13.0224 17.8362 12.8578 17.6602 12.8578 17.4477C12.8578 17.243 12.9944 17.0563 13.2416 17.0563Z" fill="white"/>
<path d="M15.4135 16.4297C14.7664 16.4297 14.381 16.9217 14.381 17.4489C14.381 18.0488 14.8474 18.459 15.4157 18.459C15.9666 18.459 16.4485 18.0677 16.4485 17.459C16.4488 16.7933 15.9442 16.4297 15.4135 16.4297ZM15.4198 17.0563C15.6484 17.0563 15.8064 17.2468 15.8064 17.4496C15.8064 17.6227 15.6592 17.8362 15.4198 17.8362C15.2006 17.8362 15.036 17.6602 15.036 17.4477C15.0357 17.243 15.1726 17.0563 15.4198 17.0563Z" fill="white"/>
<path d="M16.9903 18.448C17.242 18.448 17.446 18.244 17.446 17.9923C17.446 17.7406 17.242 17.5366 16.9903 17.5366C16.7386 17.5366 16.5346 17.7406 16.5346 17.9923C16.5346 18.244 16.7386 18.448 16.9903 18.448Z" fill="white"/>
<path d="M17.5955 17.3692H16.7752L17.5031 15.6205H18.3202L17.5955 17.3692Z" fill="white"/>
</svg>
