<svg width="24" height="24" viewBox="0 0 24 24" fill="none" xmlns="http://www.w3.org/2000/svg">
<path d="M6.25 2C5.0095 2 4 3.0095 4 4.25V19.75C4 20.9905 5.0095 22 6.25 22H17.75C18.9905 22 20 20.9905 20 19.75V10H14.25C13.0095 10 12 8.9905 12 7.75V2H6.25ZM13.5 2.43945V7.75C13.5 8.1635 13.8365 8.5 14.25 8.5H19.5605L13.5 2.43945ZM12.4463 11.5029C12.5264 11.4942 12.6088 11.5044 12.6855 11.5352L14.5566 12.2842C15.1296 12.5137 15.5 13.0598 15.5 13.6768V14.5C15.5 14.666 15.4173 14.8211 15.2803 14.9141C15.1433 15.0071 14.969 15.0268 14.8145 14.9648L13 14.2383V17.5C13 18.3285 12.1045 19 11 19C9.8955 19 9 18.3285 9 17.5C9 16.6715 9.8955 16 11 16C11.366 16 11.705 16.079 12 16.208V12C12 11.834 12.0827 11.6789 12.2197 11.5859C12.2885 11.5397 12.3662 11.5117 12.4463 11.5029Z" fill="#6B7280"/>
</svg>
