<svg width="32" height="32" viewBox="0 0 32 32" fill="none" xmlns="http://www.w3.org/2000/svg">
<g clip-path="url(#clip0_36_751)">
<rect width="32" height="32" rx="16" fill="#D6ECFD"/>
<g filter="url(#filter0_d_36_751)">
<path d="M12.1257 7.14281C10.7056 6.76229 9.24026 7.60831 8.85974 9.02843L4.10514 26.7728C3.72462 28.193 4.57063 29.6583 5.99076 30.0388L19.156 33.5664C20.5761 33.947 22.0414 33.1009 22.422 31.6808L25.4128 20.519L18.8301 18.7552C17.41 18.3747 16.564 16.9093 16.9445 15.4892L18.7083 8.90662L12.1257 7.14281ZM20.2907 9.86983L18.6617 15.9493C18.5349 16.4227 18.8169 16.9112 19.2903 17.038L25.3698 18.667L20.2907 9.86983ZM11.7669 19.9301L19.2081 21.924C19.682 22.051 19.9636 22.5387 19.8366 23.0126C19.7096 23.4866 19.2219 23.7682 18.748 23.6412L11.3067 21.6473C10.8328 21.5203 10.5512 21.0326 10.6782 20.5586C10.8052 20.0847 11.2929 19.8031 11.7669 19.9301ZM10.6877 23.9354L15.837 25.3152C16.311 25.4422 16.5927 25.9293 16.4656 26.4038C16.3497 26.8384 15.9306 27.1116 15.4964 27.056L15.378 27.0327L10.2287 25.6529C9.75471 25.5259 9.47312 25.0382 9.60012 24.5642C9.71653 24.1298 10.1351 23.8565 10.5693 23.9121L10.6877 23.9354Z" fill="white"/>
</g>
</g>
<defs>
<filter id="filter0_d_36_751" x="-11.986" y="-0.948326" width="53.3987" height="58.6059" filterUnits="userSpaceOnUse" color-interpolation-filters="sRGB">
<feFlood flood-opacity="0" result="BackgroundImageFix"/>
<feColorMatrix in="SourceAlpha" type="matrix" values="0 0 0 0 0 0 0 0 0 0 0 0 0 0 0 0 0 0 127 0" result="hardAlpha"/>
<feOffset dy="8"/>
<feGaussianBlur stdDeviation="8"/>
<feComposite in2="hardAlpha" operator="out"/>
<feColorMatrix type="matrix" values="0 0 0 0 0.0392157 0 0 0 0 0.482353 0 0 0 0 0.8 0 0 0 0.2 0"/>
<feBlend mode="normal" in2="BackgroundImageFix" result="effect1_dropShadow_36_751"/>
<feBlend mode="normal" in="SourceGraphic" in2="effect1_dropShadow_36_751" result="shape"/>
</filter>
<clipPath id="clip0_36_751">
<rect width="32" height="32" rx="16" fill="white"/>
</clipPath>
</defs>
</svg>
