<svg width="24" height="24" viewBox="0 0 24 24" fill="none" xmlns="http://www.w3.org/2000/svg">
<path d="M19 21H5C3.8955 21 3 20.1045 3 19V5C3 3.8955 3.8955 3 5 3H19C20.1045 3 21 3.8955 21 5V19C21 20.1045 20.1045 21 19 21Z" fill="#E53935"/>
<path d="M17.4205 13.3995C16.5745 12.521 14.2635 12.879 13.7105 12.944C12.897 12.163 12.3435 11.219 12.1485 10.8935C12.4415 10.015 12.6365 9.136 12.669 8.1925C12.669 7.379 12.3435 6.5 11.4325 6.5C11.107 6.5 10.814 6.6955 10.6515 6.9555C10.261 7.639 10.4235 9.006 11.042 10.405C10.684 11.414 10.3585 12.39 9.44751 14.115C8.50351 14.5055 6.51851 15.417 6.35601 16.393C6.29101 16.686 6.38851 16.979 6.61651 17.2065C6.84401 17.4025 7.13651 17.5 7.42951 17.5C8.63351 17.5 9.80501 15.84 10.619 14.441C11.3025 14.213 12.3765 13.8875 13.4505 13.6925C14.7195 14.799 15.826 14.9615 16.412 14.9615C17.193 14.9615 17.486 14.636 17.5835 14.343C17.746 14.018 17.6485 13.66 17.4205 13.3995ZM16.607 13.9525C16.5745 14.1805 16.2815 14.408 15.761 14.278C15.1425 14.1155 14.5895 13.8225 14.101 13.432C14.524 13.367 15.468 13.2695 16.1515 13.3995C16.412 13.4645 16.672 13.627 16.607 13.9525ZM11.172 7.2485C11.237 7.151 11.3345 7.086 11.4325 7.086C11.7255 7.086 11.7905 7.444 11.7905 7.737C11.758 8.4205 11.628 9.104 11.4 9.755C10.912 8.4525 11.0095 7.5415 11.172 7.2485ZM11.107 13.562C11.3675 13.0415 11.7255 12.13 11.8555 11.7395C12.1485 12.2275 12.6365 12.8135 12.897 13.074C12.897 13.1065 11.888 13.302 11.107 13.562ZM9.18701 14.864C8.43851 16.1005 7.65751 16.882 7.23451 16.882C7.16951 16.882 7.10451 16.8495 7.03901 16.817C6.94151 16.752 6.90901 16.6545 6.94151 16.524C7.03901 16.068 7.88501 15.4495 9.18701 14.864Z" fill="white"/>
</svg>
