<svg width="24" height="24" viewBox="0 0 24 24" fill="none" xmlns="http://www.w3.org/2000/svg">
<path d="M13.5 9.5H10.5V2C10.5 1.1715 11.1715 0.5 12 0.5C12.8285 0.5 13.5 1.1715 13.5 2V9.5Z" fill="url(#paint0_linear_25_1418)"/>
<path d="M13.5 6.5H10.5V9H13.5V6.5Z" fill="#16528C"/>
<path d="M19 12H5C4.353 17.1765 3 21.5 3 21.5C3 21.5 6.8235 22.5 12 22.5C17.1765 22.5 21 21.5 21 21.5C21 21.5 19.647 17.1765 19 12Z" fill="url(#paint1_linear_25_1418)"/>
<path d="M9.00002 22.389V17C8.76452 18.8835 8.09552 20.8525 7.66852 22.273C8.09002 22.3165 8.53702 22.3555 9.00002 22.389Z" fill="url(#paint2_linear_25_1418)"/>
<path d="M16.892 22.21C16.461 20.5585 15.8735 17.487 15.5 14.5V22.3505C15.991 22.3095 16.4535 22.2615 16.892 22.21Z" fill="url(#paint3_linear_25_1418)"/>
<path d="M19 12H5V10.615C5 9.9305 5.4595 9.33 6.1235 9.1625C7.2755 8.872 9.2825 8.5 12 8.5C14.7175 8.5 16.7245 8.872 17.8765 9.1625C18.5405 9.3295 19 9.9305 19 10.615V12Z" fill="url(#paint4_linear_25_1418)"/>
<defs>
<linearGradient id="paint0_linear_25_1418" x1="12" y1="0.603" x2="12" y2="9.603" gradientUnits="userSpaceOnUse">
<stop stop-color="#EBA600"/>
<stop offset="1" stop-color="#C28200"/>
</linearGradient>
<linearGradient id="paint1_linear_25_1418" x1="12" y1="22.1325" x2="12" y2="11.8825" gradientUnits="userSpaceOnUse">
<stop stop-color="#FFCF54"/>
<stop offset="0.261" stop-color="#FDCB4D"/>
<stop offset="0.639" stop-color="#F7C13A"/>
<stop offset="1" stop-color="#F0B421"/>
</linearGradient>
<linearGradient id="paint2_linear_25_1418" x1="8.33452" y1="22.3435" x2="8.33452" y2="17.301" gradientUnits="userSpaceOnUse">
<stop stop-color="#EBA600"/>
<stop offset="1" stop-color="#C28200"/>
</linearGradient>
<linearGradient id="paint3_linear_25_1418" x1="16.196" y1="22.1535" x2="16.196" y2="14.878" gradientUnits="userSpaceOnUse">
<stop stop-color="#EBA600"/>
<stop offset="1" stop-color="#C28200"/>
</linearGradient>
<linearGradient id="paint4_linear_25_1418" x1="11.071" y1="7.8505" x2="12.7455" y2="13.8955" gradientUnits="userSpaceOnUse">
<stop stop-color="#0D61A9"/>
<stop offset="1" stop-color="#16528C"/>
</linearGradient>
</defs>
</svg>
