<svg width="24" height="24" viewBox="0 0 24 24" fill="none" xmlns="http://www.w3.org/2000/svg">
<path d="M12 2C6.486 2 2 6.486 2 12C2 17.514 6.486 22 12 22C17.514 22 22 17.514 22 12C22 6.486 17.514 2 12 2ZM12 7.5C14.4815 7.5 16.5 9.519 16.5 12C16.5 14.481 14.4815 16.5 12 16.5C9.5185 16.5 7.5 14.481 7.5 12C7.5 9.519 9.5185 7.5 12 7.5ZM17.9985 18.016L16.2315 16.249C17.323 15.162 18 13.6585 18 12C18 8.6915 15.3085 6 12 6V3.5C16.687 3.5 20.5 7.313 20.5 12C20.5 14.348 19.5425 16.4765 17.9985 18.016Z" fill="#6B7280"/>
</svg>
