<svg width="24" height="24" viewBox="0 0 24 24" fill="none" xmlns="http://www.w3.org/2000/svg">
<path d="M20 22.5H4V1.5H15L20 6.5V22.5Z" fill="#90CAF9"/>
<path d="M19.25 7H14.5V2.25L19.25 7Z" fill="#E1F5FE"/>
<path d="M10.5 11.5L7 16.5H14L10.5 11.5Z" fill="#1565C0"/>
<path d="M14 13.2L11.5 16.5H16.5L14 13.2ZM15.75 11.5C15.5511 11.5 15.3603 11.579 15.2197 11.7197C15.079 11.8603 15 12.0511 15 12.25C15 12.4489 15.079 12.6397 15.2197 12.7803C15.3603 12.921 15.5511 13 15.75 13C15.9489 13 16.1397 12.921 16.2803 12.7803C16.421 12.6397 16.5 12.4489 16.5 12.25C16.5 12.0511 16.421 11.8603 16.2803 11.7197C16.1397 11.579 15.9489 11.5 15.75 11.5Z" fill="#1976D2"/>
</svg>
