<svg width="24" height="24" viewBox="0 0 24 24" fill="none" xmlns="http://www.w3.org/2000/svg">
<path d="M11.9883 2.98926C11.7896 2.99236 11.6002 3.07423 11.4617 3.21686C11.3233 3.3595 11.2472 3.55125 11.25 3.75V14.4395L9.53029 12.7197C9.46038 12.6477 9.37674 12.5905 9.28431 12.5514C9.19188 12.5123 9.09255 12.4922 8.9922 12.4922C8.84294 12.4922 8.69709 12.5368 8.5733 12.6202C8.44951 12.7036 8.35342 12.822 8.29731 12.9603C8.24121 13.0986 8.22765 13.2506 8.25837 13.3966C8.28908 13.5427 8.36268 13.6763 8.46974 13.7803L11.4697 16.7803C11.6104 16.9209 11.8011 16.9999 12 16.9999C12.1989 16.9999 12.3896 16.9209 12.5303 16.7803L15.5303 13.7803C15.6023 13.7112 15.6597 13.6284 15.6993 13.5368C15.7389 13.4452 15.7598 13.3466 15.7608 13.2468C15.7619 13.1471 15.7429 13.0481 15.7052 12.9557C15.6675 12.8633 15.6117 12.7794 15.5412 12.7088C15.4706 12.6383 15.3867 12.5825 15.2943 12.5448C15.2019 12.5071 15.103 12.4882 15.0032 12.4892C14.9034 12.4902 14.8048 12.5111 14.7132 12.5507C14.6216 12.5903 14.5389 12.6477 14.4697 12.7197L12.75 14.4395V3.75C12.7515 3.64962 12.7327 3.54997 12.6949 3.45695C12.6572 3.36394 12.6011 3.27946 12.5301 3.20852C12.459 3.13757 12.3745 3.08161 12.2814 3.04395C12.1884 3.00629 12.0887 2.98769 11.9883 2.98926ZM3.7383 15.4893C3.53956 15.4924 3.35017 15.5742 3.21174 15.7169C3.07332 15.8595 2.99717 16.0513 3.00002 16.25V18.25C3.00002 19.7599 4.24013 21 5.75002 21H18.25C19.7599 21 21 19.7599 21 18.25V16.25C21.0014 16.1506 20.9831 16.0519 20.946 15.9597C20.9089 15.8675 20.8539 15.7836 20.7841 15.7128C20.7144 15.642 20.6312 15.5858 20.5395 15.5474C20.4478 15.5091 20.3494 15.4893 20.25 15.4893C20.1506 15.4893 20.0522 15.5091 19.9605 15.5474C19.8688 15.5858 19.7857 15.642 19.7159 15.7128C19.6461 15.7836 19.5911 15.8675 19.554 15.9597C19.517 16.0519 19.4986 16.1506 19.5 16.25V18.25C19.5 18.9491 18.9491 19.5 18.25 19.5H5.75002C5.0509 19.5 4.50002 18.9491 4.50002 18.25V16.25C4.50146 16.1496 4.48273 16.05 4.44495 15.957C4.40717 15.8639 4.3511 15.7795 4.28006 15.7085C4.20903 15.6376 4.12447 15.5816 4.03141 15.544C3.93835 15.5063 3.83868 15.4877 3.7383 15.4893Z" fill="#6B7280"/>
</svg>
