<svg width="24" height="24" viewBox="0 0 24 24" fill="none" xmlns="http://www.w3.org/2000/svg">
<path d="M12 2C8.73209 2 5.82559 3.57458 4.00001 6.00586V4.25C4.00145 4.14962 3.98273 4.04997 3.94495 3.95695C3.90716 3.86394 3.85109 3.77946 3.78006 3.70852C3.70902 3.63757 3.62447 3.58161 3.53141 3.54395C3.43835 3.50629 3.33868 3.48769 3.2383 3.48926C3.03955 3.49236 2.85017 3.57422 2.71174 3.71686C2.57331 3.8595 2.49716 4.05125 2.50001 4.25V7.75C2.50003 7.94891 2.57906 8.13966 2.71971 8.28031C2.86035 8.42096 3.05111 8.49998 3.25001 8.5H6.75001C6.8494 8.50141 6.94807 8.48304 7.0403 8.44598C7.13252 8.40892 7.21646 8.3539 7.28724 8.28412C7.35802 8.21434 7.41422 8.13118 7.45258 8.03949C7.49094 7.9478 7.51069 7.84939 7.51069 7.75C7.51069 7.65061 7.49094 7.5522 7.45258 7.46051C7.41422 7.36882 7.35802 7.28566 7.28724 7.21588C7.21646 7.1461 7.13252 7.09108 7.0403 7.05402C6.94807 7.01696 6.8494 6.99859 6.75001 7H5.12501C6.66955 4.8791 9.1696 3.5 12 3.5C16.7032 3.5 20.5 7.29685 20.5 12C20.5 16.7031 16.7032 20.5 12 20.5C7.29687 20.5 3.50001 16.7031 3.50001 12C3.50142 11.9006 3.48306 11.8019 3.446 11.7097C3.40894 11.6175 3.35392 11.5336 3.28413 11.4628C3.21435 11.392 3.1312 11.3358 3.0395 11.2974C2.94781 11.2591 2.84941 11.2393 2.75001 11.2393C2.65062 11.2393 2.55222 11.2591 2.46052 11.2974C2.36883 11.3358 2.28568 11.392 2.21589 11.4628C2.14611 11.5336 2.09109 11.6175 2.05403 11.7097C2.01697 11.8019 1.99861 11.9006 2.00001 12C2.00001 17.5139 6.48616 22 12 22C17.5139 22 22 17.5139 22 12C22 6.48615 17.5139 2 12 2ZM11.7383 6.48926C11.5396 6.49236 11.3502 6.57423 11.2117 6.71686C11.0733 6.8595 10.9972 7.05125 11 7.25V13.25C11 13.4489 11.0791 13.6397 11.2197 13.7803C11.3604 13.921 11.5511 14 11.75 14H15.75C15.8494 14.0014 15.9481 13.983 16.0403 13.946C16.1325 13.9089 16.2165 13.8539 16.2872 13.7841C16.358 13.7143 16.4142 13.6312 16.4526 13.5395C16.4909 13.4478 16.5107 13.3494 16.5107 13.25C16.5107 13.1506 16.4909 13.0522 16.4526 12.9605C16.4142 12.8688 16.358 12.7857 16.2872 12.7159C16.2165 12.6461 16.1325 12.5911 16.0403 12.554C15.9481 12.517 15.8494 12.4986 15.75 12.5H12.5V7.25C12.5015 7.14962 12.4827 7.04997 12.4449 6.95695C12.4072 6.86394 12.3511 6.77946 12.2801 6.70852C12.209 6.63758 12.1245 6.58161 12.0314 6.54395C11.9383 6.50629 11.8387 6.48769 11.7383 6.48926Z" fill="#6B7280"/>
</svg>
