<svg width="24" height="24" viewBox="0 0 24 24" fill="none" xmlns="http://www.w3.org/2000/svg">
<path d="M2.75 11.25C2.65062 11.2486 2.55194 11.267 2.45972 11.304C2.36749 11.3411 2.28355 11.3961 2.21277 11.4659C2.142 11.5357 2.08579 11.6188 2.04743 11.7105C2.00907 11.8022 1.98932 11.9006 1.98932 12C1.98932 12.0994 2.00907 12.1978 2.04743 12.2895C2.08579 12.3812 2.142 12.4643 2.21277 12.5341C2.28355 12.6039 2.36749 12.6589 2.45972 12.696C2.55194 12.733 2.65062 12.7514 2.75 12.75H21.25C21.3494 12.7514 21.4481 12.733 21.5403 12.696C21.6325 12.6589 21.7164 12.6039 21.7872 12.5341C21.858 12.4643 21.9142 12.3812 21.9526 12.2895C21.9909 12.1978 22.0107 12.0994 22.0107 12C22.0107 11.9006 21.9909 11.8022 21.9526 11.7105C21.9142 11.6188 21.858 11.5357 21.7872 11.4659C21.7164 11.3961 21.6325 11.3411 21.5403 11.304C21.4481 11.267 21.3494 11.2486 21.25 11.25H2.75Z" fill="#6B7280"/>
<path d="M2.38767 4.55409C2.46367 4.51703 2.54499 4.49867 2.62689 4.50007H17.8731C17.955 4.49867 18.0363 4.51703 18.1123 4.55409C18.1883 4.59114 18.2575 4.64616 18.3158 4.71593C18.3742 4.78571 18.4205 4.86886 18.4521 4.96054C18.4837 5.05222 18.5 5.15062 18.5 5.25C18.5 5.34938 18.4837 5.44778 18.4521 5.53946C18.4205 5.63114 18.3742 5.71429 18.3158 5.78407C18.2575 5.85384 18.1883 5.90886 18.1123 5.94591C18.0363 5.98297 17.955 6.00133 17.8731 5.99993H2.62689C2.54499 6.00133 2.46367 5.98297 2.38767 5.94591C2.31166 5.90886 2.24248 5.85384 2.18415 5.78407C2.12583 5.71429 2.07951 5.63114 2.04789 5.53946C2.01628 5.44778 2 5.34938 2 5.25C2 5.15062 2.01628 5.05222 2.04789 4.96054C2.07951 4.86886 2.12583 4.78571 2.18415 4.71593C2.24248 4.64616 2.31166 4.59114 2.38767 4.55409Z" fill="#6B7280"/>
<path d="M2.32893 18.0541C2.39342 18.017 2.46241 17.9987 2.53191 18.0001H15.4681C15.5376 17.9987 15.6066 18.017 15.6711 18.0541C15.7356 18.0911 15.7943 18.1462 15.8437 18.2159C15.8932 18.2857 15.9325 18.3689 15.9594 18.4605C15.9862 18.5522 16 18.6506 16 18.75C16 18.8494 15.9862 18.9478 15.9594 19.0395C15.9325 19.1311 15.8932 19.2143 15.8437 19.2841C15.7943 19.3538 15.7356 19.4089 15.6711 19.4459C15.6066 19.483 15.5376 19.5013 15.4681 19.4999H2.53191C2.46241 19.5013 2.39342 19.483 2.32893 19.4459C2.26444 19.4089 2.20574 19.3538 2.15625 19.2841C2.10676 19.2143 2.06746 19.1311 2.04064 19.0395C2.01381 18.9478 2 18.8494 2 18.75C2 18.6506 2.01381 18.5522 2.04064 18.4605C2.06746 18.3689 2.10676 18.2857 2.15625 18.2159C2.20574 18.1462 2.26444 18.0911 2.32893 18.0541Z" fill="#6B7280"/>
</svg>
