<svg width="24" height="24" viewBox="0 0 24 24" fill="none" xmlns="http://www.w3.org/2000/svg">
<path d="M19.295 19.5C19.0275 19.965 19.146 20.34 18.6975 20.5985C18.249 20.8575 17.7325 21 17.195 21H6.80499C6.26799 21 5.75199 20.8575 5.30299 20.599C4.85399 20.3405 4.97249 19.965 4.70499 19.5L8.53999 15H15.46L19.295 19.5Z" fill="#1E88E5"/>
<path d="M13.7315 3.4995C14.268 3.4985 14.7835 3.1415 15.232 3.4005C15.6805 3.66 16.062 4.0355 16.3305 4.501L21.5255 13.499C21.794 13.964 21.929 14.4825 21.9295 15C21.93 15.5185 21.296 16.0365 21.0265 16.5005L15.463 14.998L12.001 9.0015L13.7315 3.4995Z" fill="#FBC02D"/>
<path d="M21.93 15C21.93 15.52 21.795 16.035 21.525 16.5L19.69 19.675C19.425 20.065 19.085 20.375 18.695 20.6L15.46 15H21.93Z" fill="#E53935"/>
<path d="M2.9735 16.5005C2.7045 16.0365 2.0705 15.5185 2.0705 15.0005C2.071 14.4825 2.2055 13.964 2.4745 13.4985L7.6695 4.5005C7.938 4.0355 8.3195 3.6595 8.7675 3.4005C9.216 3.141 9.732 3.498 10.2685 3.499L11.998 9.0035L8.537 14.998L2.9735 16.5005Z" fill="#4CAF50"/>
<path d="M8.54001 15L5.30501 20.6C4.91501 20.375 4.57501 20.065 4.31001 19.675L2.47501 16.5C2.20501 16.035 2.07001 15.52 2.07001 15H8.54001Z" fill="#1565C0"/>
<path d="M15.23 3.4L12 9L8.76501 3.4C9.15501 3.175 9.59501 3.035 10.065 3.005L13.73 3C14.27 3 14.785 3.14 15.23 3.4Z" fill="#2E7D32"/>
</svg>
