<svg width="24" height="24" viewBox="0 0 24 24" fill="none" xmlns="http://www.w3.org/2000/svg">
<path d="M6.25 3C4.7335 3 3.5 4.2335 3.5 5.75V7.25C3.5 8.03852 3.83578 8.74812 4.36914 9.25C3.83578 9.75188 3.5 10.4615 3.5 11.25V12.75C3.5 13.5385 3.83578 14.2481 4.36914 14.75C3.83578 15.2519 3.5 15.9615 3.5 16.75V18.25C3.5 19.7665 4.7335 21 6.25 21H17.75C19.2665 21 20.5 19.7665 20.5 18.25V16.75C20.5 15.9615 20.1642 15.2519 19.6309 14.75C20.1642 14.2481 20.5 13.5385 20.5 12.75V11.25C20.5 10.4615 20.1642 9.75188 19.6309 9.25C20.1642 8.74812 20.5 8.03852 20.5 7.25V5.75C20.5 4.2335 19.2665 3 17.75 3H6.25ZM5 7H19V7.25C19 7.939 18.439 8.5 17.75 8.5H6.25C5.561 8.5 5 7.939 5 7.25V7ZM5 12.5H19V12.75C19 13.439 18.439 14 17.75 14H6.25C5.561 14 5 13.439 5 12.75V12.5ZM5 18H19V18.25C19 18.939 18.439 19.5 17.75 19.5H6.25C5.561 19.5 5 18.939 5 18.25V18Z" fill="#6B7280"/>
</svg>
