<svg width="24" height="24" viewBox="0 0 24 24" fill="none" xmlns="http://www.w3.org/2000/svg">
<path d="M13.5 19C4.55 19 2.6 16.6 1.8 15.55C1.6 15.35 1.5 15.05 1.5 14.75C1.5 14.05 2.05 13.5 2.75 13.5C3.2 13.5 4.5 13.5 4.5 11.05V10.75C4.5 6.2 8.55 2.5 13.5 2.5C18.45 2.5 22.5 6.2 22.5 10.75C22.5 15.3 18.45 19 13.5 19Z" fill="#37474F"/>
<path d="M13.5 18C17.9 18 21.5 14.75 21.5 10.75C21.5 6.75 17.9 3.5 13.5 3.5C9.1 3.5 5.5 6.75 5.5 10.75V11.05C5.5 14.15 3.6 14.5 2.75 14.5C2.6 14.5 2.5 14.6 2.5 14.75C2.5 14.8 2.5 14.85 2.55 14.9C3.3 15.85 5 18 13.5 18Z" fill="#ECEFF1"/>
<path d="M16 8C15.7348 8 15.4804 8.10536 15.2929 8.29289C15.1054 8.48043 15 8.73478 15 9C15 9.26522 15.1054 9.51957 15.2929 9.70711C15.4804 9.89464 15.7348 10 16 10C16.2652 10 16.5196 9.89464 16.7071 9.70711C16.8946 9.51957 17 9.26522 17 9C17 8.73478 16.8946 8.48043 16.7071 8.29289C16.5196 8.10536 16.2652 8 16 8ZM11 8C10.7348 8 10.4804 8.10536 10.2929 8.29289C10.1054 8.48043 10 8.73478 10 9C10 9.26522 10.1054 9.51957 10.2929 9.70711C10.4804 9.89464 10.7348 10 11 10C11.2652 10 11.5196 9.89464 11.7071 9.70711C11.8946 9.51957 12 9.26522 12 9C12 8.73478 11.8946 8.48043 11.7071 8.29289C11.5196 8.10536 11.2652 8 11 8ZM13.5 14.5C11.1 14.5 10.15 12.75 10 11.85C9.95 11.6 10.15 11.3 10.4 11.25C10.65 11.2 10.95 11.4 11 11.65C11 11.7 11.35 13.5 13.5 13.5C15.65 13.5 16 11.75 16 11.65C16.05 11.4 16.3 11.2 16.6 11.25C16.85 11.3 17.05 11.55 17 11.8C16.85 12.75 15.9 14.5 13.5 14.5ZM8.25 17C7.65326 17 7.08097 17.2371 6.65901 17.659C6.23705 18.081 6 18.6533 6 19.25C6 19.8467 6.23705 20.419 6.65901 20.841C7.08097 21.2629 7.65326 21.5 8.25 21.5C8.84674 21.5 9.41903 21.2629 9.84099 20.841C10.2629 20.419 10.5 19.8467 10.5 19.25C10.5 18.6533 10.2629 18.081 9.84099 17.659C9.41903 17.2371 8.84674 17 8.25 17Z" fill="#37474F"/>
<path d="M8.25 18.5C8.05109 18.5 7.86032 18.579 7.71967 18.7197C7.57902 18.8603 7.5 19.0511 7.5 19.25C7.5 19.4489 7.57902 19.6397 7.71967 19.7803C7.86032 19.921 8.05109 20 8.25 20C8.44891 20 8.63968 19.921 8.78033 19.7803C8.92098 19.6397 9 19.4489 9 19.25C9 19.0511 8.92098 18.8603 8.78033 18.7197C8.63968 18.579 8.44891 18.5 8.25 18.5Z" fill="#607D8B"/>
<path d="M16.25 17C15.6533 17 15.081 17.2371 14.659 17.659C14.2371 18.081 14 18.6533 14 19.25C14 19.8467 14.2371 20.419 14.659 20.841C15.081 21.2629 15.6533 21.5 16.25 21.5C16.8467 21.5 17.419 21.2629 17.841 20.841C18.2629 20.419 18.5 19.8467 18.5 19.25C18.5 18.6533 18.2629 18.081 17.841 17.659C17.419 17.2371 16.8467 17 16.25 17Z" fill="#37474F"/>
<path d="M16.25 18.5C16.0511 18.5 15.8603 18.579 15.7197 18.7197C15.579 18.8603 15.5 19.0511 15.5 19.25C15.5 19.4489 15.579 19.6397 15.7197 19.7803C15.8603 19.921 16.0511 20 16.25 20C16.4489 20 16.6397 19.921 16.7803 19.7803C16.921 19.6397 17 19.4489 17 19.25C17 19.0511 16.921 18.8603 16.7803 18.7197C16.6397 18.579 16.4489 18.5 16.25 18.5Z" fill="#607D8B"/>
</svg>
