<svg width="24" height="24" viewBox="0 0 24 24" fill="none" xmlns="http://www.w3.org/2000/svg">
<path d="M6.25 2C5.0075 2 4 3.0075 4 4.25V17.0879L7.5752 13.5771C8.3762 12.8091 9.62197 12.8083 10.418 13.5703L13.0547 16.0977L13.0771 16.0762C13.8766 15.3102 15.1225 15.3093 15.918 16.0713L19.9805 20.0518C19.993 19.9523 20 19.852 20 19.75V10H14.25C13.0075 10 12 8.9925 12 7.75V2H6.25ZM13.5 2.43945V7.75C13.5 8.1635 13.8365 8.5 14.25 8.5H19.5605L13.5 2.43945ZM14.75 12C15.4405 12 16 12.5595 16 13.25C16 13.9405 15.4405 14.5 14.75 14.5C14.0595 14.5 13.5 13.9405 13.5 13.25C13.5 12.5595 14.0595 12 14.75 12ZM9 14.501C8.86312 14.5009 8.72589 14.5511 8.61914 14.6533L4 19.1895V19.75C4 20.9925 5.0075 22 6.25 22H7.00879L11.9805 17.1465L9.37988 14.6533C9.27363 14.5516 9.13688 14.5011 9 14.501ZM14.499 17C14.363 17.0007 14.2259 17.0513 14.1191 17.1533L9.15625 22H17.75C18.324 22 18.8476 21.7847 19.2451 21.4307L14.874 17.1475C14.7703 17.0485 14.635 16.9993 14.499 17Z" fill="#6B7280"/>
</svg>
