<svg width="24" height="24" viewBox="0 0 24 24" fill="none" xmlns="http://www.w3.org/2000/svg">
<path d="M11.9883 1.48926C11.7895 1.49236 11.6002 1.57423 11.4617 1.71686C11.3233 1.8595 11.2471 2.05125 11.25 2.25V6.65332C10.5215 6.95354 10 7.66964 10 8.5V9H8.25C6.46403 9 5 10.464 5 12.25V12.75C5 16.625 4.03808 19.5127 4.03808 19.5127C3.98404 19.6747 3.98691 19.8503 4.04622 20.0105C4.10553 20.1707 4.21772 20.3058 4.36426 20.3936C4.36426 20.3936 7.07353 22 11.5 22C13.196 22 14.6865 21.7534 15.9873 21.4707C16.1567 21.493 16.3286 21.4568 16.4746 21.3682C18.3012 20.9325 19.5459 20.4395 19.5459 20.4395C19.7257 20.3622 19.8682 20.2178 19.943 20.037C20.0178 19.8562 20.019 19.6533 19.9463 19.4717C19.9463 19.4717 19 17.1389 19 12.75V12.25C19 10.464 17.536 9 15.75 9H14V8.5C14 7.66964 13.4785 6.95354 12.75 6.65332V2.25C12.7514 2.14962 12.7327 2.04997 12.6949 1.95695C12.6571 1.86394 12.6011 1.77946 12.53 1.70852C12.459 1.63757 12.3745 1.58161 12.2814 1.54395C12.1883 1.50629 12.0887 1.48769 11.9883 1.48926ZM11.9766 8.00977C11.9925 8.01027 12.0085 8.01027 12.0244 8.00977C12.2952 8.02377 12.5 8.22439 12.5 8.5V9.75C12.5 9.94891 12.579 10.1397 12.7197 10.2803C12.8603 10.421 13.0511 10.5 13.25 10.5H15.75C16.725 10.5 17.5 11.275 17.5 12.25V12.5H6.5V12.25C6.5 11.275 7.27497 10.5 8.25 10.5H10.75C10.9489 10.5 11.1397 10.421 11.2803 10.2803C11.421 10.1397 11.5 9.94891 11.5 9.75V8.5C11.5 8.22405 11.7053 8.02331 11.9766 8.00977ZM6.42969 14H17.5674C17.7013 16.9371 18.1057 18.5333 18.3418 19.2607C18.0048 19.3915 17.6366 19.544 16.582 19.8164C16.3855 19.2255 16.083 18.1556 15.999 16.2178C15.9978 16.1173 15.9764 16.0181 15.9362 15.9261C15.8959 15.8341 15.8375 15.7511 15.7646 15.682C15.6916 15.613 15.6055 15.5593 15.5114 15.5242C15.4173 15.489 15.3171 15.4731 15.2168 15.4775C15.1164 15.4818 15.0179 15.5062 14.9272 15.5493C14.8365 15.5924 14.7553 15.6533 14.6885 15.7283C14.6218 15.8034 14.5708 15.8911 14.5386 15.9863C14.5063 16.0814 14.4936 16.182 14.501 16.2822C14.583 18.1762 14.8772 19.3542 15.1133 20.123C14.0234 20.3302 12.832 20.5 11.5 20.5C10.7467 20.5 10.1213 20.4165 9.49316 20.3389C9.67369 19.8644 9.86496 19.2904 9.99316 18.3516C10.0068 18.2538 10.001 18.1544 9.97618 18.0589C9.95131 17.9633 9.90785 17.8737 9.84827 17.795C9.7887 17.7163 9.71418 17.6502 9.629 17.6004C9.54382 17.5505 9.44964 17.518 9.35186 17.5047C9.25408 17.4913 9.15463 17.4974 9.0592 17.5225C8.96377 17.5476 8.87424 17.5914 8.79574 17.6512C8.71724 17.711 8.65131 17.7857 8.60174 17.871C8.55216 17.9563 8.51991 18.0506 8.50683 18.1484C8.3745 19.1175 8.18076 19.7154 8.03711 20.0518C8.01848 20.0954 8.02968 20.0634 8.01465 20.0967C6.61555 19.7786 5.96893 19.4928 5.62988 19.3145C5.83572 18.6184 6.28286 16.8276 6.42969 14Z" fill="#6B7280"/>
</svg>
