<svg width="24" height="24" viewBox="0 0 24 24" fill="none" xmlns="http://www.w3.org/2000/svg">
<path d="M12 4C8.26145 4 5.20787 6.86022 4.82617 10.5H4.5C2.02364 10.5 0 12.5236 0 15C0 17.4764 2.02364 19.5 4.5 19.5H12H19.5C21.9764 19.5 24 17.4764 24 15C24 12.5236 21.9764 10.5 19.5 10.5H19.1738C18.7921 6.86022 15.7386 4 12 4ZM12 5.5C15.1847 5.5 17.75 8.06529 17.75 11.25C17.75 11.4489 17.829 11.6397 17.9697 11.7803C18.1103 11.921 18.3011 12 18.5 12H19.5C21.1656 12 22.5 13.3344 22.5 15C22.5 16.6656 21.1656 18 19.5 18H12H4.5C2.83436 18 1.5 16.6656 1.5 15C1.5 13.3344 2.83436 12 4.5 12H5.5C5.69891 12 5.88966 11.921 6.03031 11.7803C6.17096 11.6397 6.24998 11.4489 6.25 11.25C6.25 8.06529 8.81529 5.5 12 5.5Z" fill="#6B7280"/>
</svg>
