<svg width="24" height="24" viewBox="0 0 24 24" fill="none" xmlns="http://www.w3.org/2000/svg">
<path d="M4.25 4C3.0095 4 2 5.0095 2 6.25V17.75C2 18.9905 3.0095 20 4.25 20H11.502C11.304 19.5265 11.1665 19.0225 11.085 18.5H4.25C3.8365 18.5 3.5 18.1635 3.5 17.75V6.25C3.5 5.8365 3.8365 5.5 4.25 5.5H8.02637C8.31837 5.5 8.60215 5.60256 8.82715 5.78906L11.2705 7.82617C11.405 7.93867 11.5745 8 11.75 8H19.75C20.1635 8 20.5 8.3365 20.5 8.75V11.7393C21.0515 12.0278 21.5555 12.3928 22 12.8203V8.75C22 7.5095 20.9905 6.5 19.75 6.5H12.0215L9.78613 4.63672C9.29263 4.22622 8.66787 4 8.02637 4H4.25ZM17.5 12C14.4625 12 12 14.4625 12 17.5C12 20.5375 14.4625 23 17.5 23C20.5375 23 23 20.5375 23 17.5C23 14.4625 20.5375 12 17.5 12ZM17.5 13.5C18.05 13.5 18.5576 13.7542 18.8936 14.1982C19.0601 14.4182 19.0164 14.7329 18.7959 14.8994C18.5749 15.0659 18.2622 15.0223 18.0957 14.8018C17.9507 14.6103 17.7335 14.5 17.5 14.5C17.0865 14.5 16.75 14.8365 16.75 15.25V16H19C19.5525 16 20 16.4475 20 17V19.5C20 20.0525 19.5525 20.5 19 20.5H16C15.4475 20.5 15 20.0525 15 19.5V17C15 16.5345 15.3195 16.1467 15.75 16.0352V15.25C15.75 14.285 16.535 13.5 17.5 13.5Z" fill="#6B7280"/>
</svg>
